<svg id="Capa_1" enable-background="new 0 0 494.122 494.122" height="512" viewBox="0 0 494.122 494.122" width="512" xmlns="http://www.w3.org/2000/svg"><path d="m483.46 96.624-15.33-57.42c-1.72-6.45-6.76-11.49-13.21-13.21l-57.42-15.33c-73.39-19.59-150.08-11.75-216.64 19.91-.25.12-.31.46-.11.65l11.45 11.46c9.3 9.29 9.3 24.36 0 33.66-9.29 9.29-24.36 9.29-33.66 0l-19.7-19.7c-.67-.68-1.73-.77-2.51-.23-15.18 10.56-29.54 22.53-42.88 35.87l-9.54 9.54c-.77.77-.77 2.01 0 2.77l85.5 85.5c9.29 9.29 9.29 24.36 0 33.66-9.3 9.29-24.37 9.29-33.66 0l-85.04-85.04c-1.02-1.02-2.67-1.02-3.69 0-31.34 31.35-47.02 72.43-47.02 113.51 0 41.09 15.68 82.18 47.02 113.52l8.42 8.42c6.46 6.46 14.77 10.72 23.78 12.2l14.757 2.425 12.355-6.243 2.206 2.509-3.763 14.149 2.984 15.7c1.48 9.01 5.74 17.32 12.2 23.78l8.42 8.42c62.69 62.69 164.34 62.69 227.03 0l46.43-46.43c12.81-12.81 24.36-26.56 34.6-41.08.85-1.2.7-2.84-.34-3.88l-79.39-79.39c-9.29-9.3-9.29-24.37 0-33.66 9.3-9.3 24.37-9.3 33.66 0l69.31 69.31c1.48 1.48 3.99 1.05 4.87-.84 30.821-66.06 38.291-141.9 18.911-214.51zm-209.98 59.04-1.96 1.96c-8.75 8.75-22.94 8.75-31.7 0l-18.88-18.89c-8.76-8.75-8.76-22.94 0-31.7l1.96-1.96c8.75-8.75 22.94-8.75 31.7 0l18.88 18.89c8.76 8.75 8.76 22.94 0 31.7z" fill="#57be92"/><g><path d="m172.088 403.396-8.42-8.42c-6.46-6.46-10.72-14.77-12.2-23.78l-2.985-15.7 3.763-14.149-2.206-2.509-12.355 6.243-14.757-2.425c-9.01-1.48-17.32-5.74-23.78-12.2l-8.42-8.42c-31.34-31.34-47.02-72.43-47.02-113.52 0-21.703 4.38-43.405 13.131-63.674l-6.129-6.128c-1.02-1.02-2.67-1.02-3.69 0-31.34 31.35-47.02 72.43-47.02 113.51 0 41.09 15.68 82.18 47.02 113.52l8.42 8.42c6.46 6.46 14.77 10.72 23.78 12.2l14.757 2.425 12.355-6.243 2.206 2.509-3.763 14.149 2.984 15.7c1.48 9.01 5.74 17.32 12.2 23.78l8.42 8.42c62.69 62.69 164.34 62.69 227.03 0l43.699-43.699c-62.69 62.68-164.333 62.678-227.02-.009z" fill="#22b27f"/></g><g><g><path d="m218.083 282.79c-1.919 0-3.839-.732-5.303-2.196l-19.7-19.7c-2.929-2.93-2.929-7.678 0-10.607 2.929-2.928 7.678-2.928 10.606 0l19.7 19.7c2.929 2.93 2.929 7.678 0 10.607-1.464 1.463-3.384 2.196-5.303 2.196z" fill="#7acaa6"/></g><g><path d="m449.547 161.885c-1.919 0-3.839-.732-5.304-2.196l-29.18-29.18c-2.929-2.93-2.929-7.678 0-10.607 2.93-2.928 7.678-2.928 10.607 0l29.18 29.18c2.929 2.93 2.929 7.678 0 10.607-1.464 1.464-3.384 2.196-5.303 2.196z" fill="#7acaa6"/></g><g><path d="m236.426 445.922c-1.919 0-3.839-.732-5.303-2.196l-49.125-49.125c-2.929-2.93-2.929-7.678 0-10.607 2.929-2.928 7.678-2.928 10.606 0l49.125 49.125c2.929 2.93 2.929 7.678 0 10.607-1.464 1.464-3.384 2.196-5.303 2.196z" fill="#7acaa6"/></g><g><path d="m132.636 283.774c-1.919 0-3.839-.732-5.303-2.196l-50.971-50.972c-2.929-2.93-2.929-7.678 0-10.607s7.678-2.927 10.606 0l50.971 50.972c2.929 2.93 2.929 7.678 0 10.607-1.464 1.464-3.384 2.196-5.303 2.196z" fill="#7acaa6"/></g><g><path d="m339.21 381.688c-1.919 0-3.839-.732-5.304-2.196l-54.733-54.732c-2.929-2.93-2.929-7.678 0-10.607 2.93-2.928 7.678-2.928 10.607 0l54.733 54.732c2.929 2.93 2.929 7.678 0 10.607-1.464 1.464-3.384 2.196-5.303 2.196z" fill="#7acaa6"/></g><g><path d="m350.785 92.297c-1.919 0-3.839-.732-5.304-2.196l-38.822-38.822c-2.929-2.93-2.929-7.678 0-10.607 2.93-2.928 7.678-2.928 10.607 0l38.822 38.822c2.929 2.93 2.929 7.678 0 10.607-1.464 1.464-3.384 2.196-5.303 2.196z" fill="#7acaa6"/></g></g><path d="m483.46 96.624-15.33-57.42c-1.72-6.45-6.76-11.49-13.21-13.21l-57.42-15.33c-73.39-19.59-150.08-11.75-216.64 19.91-.25.12-.31.46-.11.65l11.45 11.46c9.3 9.29 9.3 24.36 0 33.66-9.29 9.29-24.36 9.29-33.66 0l-19.7-19.7c-.67-.68-1.73-.77-2.51-.23-15.18 10.56-29.54 22.53-42.88 35.87l-9.54 9.54c-.77.77-.77 2.01 0 2.77l85.5 85.5c9.29 9.29 9.29 24.36 0 33.66-9.3 9.29-24.37 9.29-33.66 0l-85.04-85.04c-1.02-1.02-2.67-1.02-3.69 0-31.34 31.35-47.02 72.43-47.02 113.51 0 41.09 15.68 82.18 47.02 113.52l8.42 8.42c6.46 6.46 14.77 10.72 23.78 12.2l14.757 2.425 12.355-6.243 2.206 2.509-3.763 14.149 2.984 15.7c1.48 9.01 5.74 17.32 12.2 23.78l8.42 8.42c62.69 62.69 164.34 62.69 227.03 0l46.43-46.43c12.81-12.81 24.36-26.56 34.6-41.08.85-1.2.7-2.84-.34-3.88l-79.39-79.39c-9.29-9.3-9.29-24.37 0-33.66 9.3-9.3 24.37-9.3 33.66 0l69.31 69.31c1.48 1.48 3.99 1.05 4.87-.84 30.821-66.06 38.291-141.9 18.911-214.51zm-209.98 59.04-1.96 1.96c-8.75 8.75-22.94 8.75-31.7 0l-18.88-18.89c-8.76-8.75-8.76-22.94 0-31.7l1.96-1.96c8.75-8.75 22.94-8.75 31.7 0l18.88 18.89c8.76 8.75 8.76 22.94 0 31.7z" fill="#57be92"/><path d="m180.496 302.269-147.749 147.749c-2.929 2.93-2.929 7.678 0 10.607 1.464 1.464 3.384 2.196 5.303 2.196s3.839-.732 5.303-2.196l146.983-146.982z" fill="#09a76d"/><g><path d="m172.088 403.396-8.42-8.42c-6.46-6.46-10.72-14.77-12.2-23.78l-2.985-15.7 3.763-14.149-2.206-2.509-12.355 6.243-14.757-2.425c-9.01-1.48-17.32-5.74-23.78-12.2l-8.42-8.42c-31.34-31.34-47.02-72.43-47.02-113.52 0-21.703 4.38-43.405 13.131-63.674l-6.129-6.128c-1.02-1.02-2.67-1.02-3.69 0-31.34 31.35-47.02 72.43-47.02 113.51 0 41.09 15.68 82.18 47.02 113.52l8.42 8.42c6.46 6.46 14.77 10.72 23.78 12.2l14.757 2.425 12.355-6.243 2.206 2.509-3.763 14.149 2.984 15.7c1.48 9.01 5.74 17.32 12.2 23.78l8.42 8.42c62.69 62.69 164.34 62.69 227.03 0l43.699-43.699c-62.69 62.68-164.333 62.678-227.02-.009z" fill="#22b27f"/></g><g><g><path d="m218.083 282.79c-1.919 0-3.839-.732-5.303-2.196l-19.7-19.7c-2.929-2.93-2.929-7.678 0-10.607 2.929-2.928 7.678-2.928 10.606 0l19.7 19.7c2.929 2.93 2.929 7.678 0 10.607-1.464 1.463-3.384 2.196-5.303 2.196z" fill="#7acaa6"/></g><g><path d="m449.547 161.885c-1.919 0-3.839-.732-5.304-2.196l-29.18-29.18c-2.929-2.93-2.929-7.678 0-10.607 2.93-2.928 7.678-2.928 10.607 0l29.18 29.18c2.929 2.93 2.929 7.678 0 10.607-1.464 1.464-3.384 2.196-5.303 2.196z" fill="#7acaa6"/></g><g><path d="m236.426 445.922c-1.919 0-3.839-.732-5.303-2.196l-49.125-49.125c-2.929-2.93-2.929-7.678 0-10.607 2.929-2.928 7.678-2.928 10.606 0l49.125 49.125c2.929 2.93 2.929 7.678 0 10.607-1.464 1.464-3.384 2.196-5.303 2.196z" fill="#7acaa6"/></g><g><path d="m132.636 283.774c-1.919 0-3.839-.732-5.303-2.196l-50.971-50.972c-2.929-2.93-2.929-7.678 0-10.607s7.678-2.927 10.606 0l50.971 50.972c2.929 2.93 2.929 7.678 0 10.607-1.464 1.464-3.384 2.196-5.303 2.196z" fill="#7acaa6"/></g><g><path d="m339.21 381.688c-1.919 0-3.839-.732-5.304-2.196l-54.733-54.732c-2.929-2.93-2.929-7.678 0-10.607 2.93-2.928 7.678-2.928 10.607 0l54.733 54.732c2.929 2.93 2.929 7.678 0 10.607-1.464 1.464-3.384 2.196-5.303 2.196z" fill="#7acaa6"/></g><g><path d="m350.785 92.297c-1.919 0-3.839-.732-5.304-2.196l-38.822-38.822c-2.929-2.93-2.929-7.678 0-10.607 2.93-2.928 7.678-2.928 10.607 0l38.822 38.822c2.929 2.93 2.929 7.678 0 10.607-1.464 1.464-3.384 2.196-5.303 2.196z" fill="#7acaa6"/></g></g><path d="m456.329 26.437-362.352 362.352 9.103 1.495 1.696 8.92 362.492-362.492c-2.037-4.79-6-8.53-10.939-10.275z" fill="#09a76d"/></svg>